<svg width="138" height="32" viewBox="0 0 138 32" fill="none" xmlns="http://www.w3.org/2000/svg">
<g clip-path="url(#clip0_299_1351)">
<path d="M11.1553 17.9712C10.8564 17.9726 10.5622 17.8975 10.3008 17.7529C10.0393 17.6083 9.81945 17.3992 9.66219 17.1455L3.96078 8.06045C3.83658 7.86029 3.66329 7.69504 3.4573 7.58033C3.25131 7.46562 3.01941 7.40523 2.78353 7.40487C2.61885 7.40487 2.46091 7.33957 2.34446 7.22335C2.22802 7.10712 2.1626 6.94948 2.1626 6.78511C2.1626 6.62074 2.22802 6.4631 2.34446 6.34687C2.46091 6.23065 2.61885 6.16535 2.78353 6.16535C3.22887 6.16665 3.66657 6.28093 4.05551 6.49744C4.44446 6.71395 4.77188 7.02559 5.00702 7.40308L10.7156 16.4881C10.7623 16.5637 10.8278 16.626 10.9059 16.6687C10.9839 16.7114 11.0717 16.7331 11.1607 16.7317C11.2497 16.732 11.3373 16.7087 11.4145 16.6644C11.4917 16.62 11.5558 16.5561 11.6003 16.4792L20.6487 1.36132C20.8974 0.947078 21.2492 0.60405 21.6699 0.365527C22.0906 0.127004 22.566 0.00108813 23.0498 0C23.2145 0 23.3724 0.0652959 23.4889 0.181523C23.6053 0.297751 23.6707 0.455389 23.6707 0.619759C23.6707 0.78413 23.6053 0.941768 23.4889 1.058C23.3724 1.17422 23.2145 1.23952 23.0498 1.23952C22.7807 1.24026 22.5164 1.3104 22.2824 1.44316C22.0485 1.57591 21.8529 1.76677 21.7146 1.9972L12.6681 17.115C12.5143 17.3745 12.2957 17.5898 12.0338 17.7398C11.7718 17.8899 11.4753 17.9696 11.1732 17.9712H11.1553Z" fill="#FAFAFA"/>
<path d="M5.96159 27.6921C5.85152 27.6934 5.74312 27.6653 5.64755 27.6108C5.55197 27.5563 5.47268 27.4774 5.41783 27.3821C5.36298 27.2869 5.33457 27.1787 5.33552 27.0689C5.33646 26.959 5.36673 26.8514 5.42321 26.7571L7.54262 23.1908C7.66944 22.9794 7.73643 22.7377 7.73643 22.4913C7.73643 22.245 7.66944 22.0032 7.54262 21.7919L0.515009 10.149C0.472942 10.0792 0.44505 10.0019 0.432926 9.92141C0.420802 9.84091 0.424682 9.75881 0.444346 9.67981C0.46401 9.6008 0.499072 9.52643 0.547531 9.46095C0.595989 9.39547 0.656895 9.34015 0.726771 9.29817C0.796647 9.25618 0.874124 9.22834 0.954779 9.21624C1.03543 9.20414 1.11769 9.20801 1.19684 9.22764C1.3567 9.26728 1.49424 9.36868 1.5792 9.50953L8.60681 21.1524C8.85056 21.5551 8.98 22.0163 8.98127 22.4868C8.98253 22.9572 8.85557 23.4191 8.61399 23.8231L6.49637 27.3894C6.44123 27.4819 6.36292 27.5584 6.26915 27.6115C6.17538 27.6645 6.06938 27.6923 5.96159 27.6921Z" fill="#FAFAFA"/>
<path d="M7.87459 31.0453C7.70991 31.0453 7.55197 30.98 7.43553 30.8637C7.31908 30.7475 7.25366 30.5899 7.25366 30.4255C7.25366 30.2611 7.31908 30.1035 7.43553 29.9873C7.55197 29.871 7.70991 29.8057 7.87459 29.8057C8.15288 29.804 8.42601 29.7306 8.66749 29.5925C8.90897 29.4544 9.1106 29.2564 9.25284 29.0176L24.3884 3.5824C24.4743 3.4449 24.6107 3.34643 24.7684 3.30808C24.9261 3.26973 25.0926 3.29455 25.2322 3.37721C25.3718 3.45988 25.4734 3.59383 25.5153 3.75036C25.5571 3.9069 25.5359 4.07358 25.4562 4.2147L10.3206 29.6499C10.0682 30.0726 9.7104 30.4228 9.28204 30.6664C8.85368 30.91 8.36939 31.0387 7.87638 31.0399L7.87459 31.0453Z" fill="#FAFAFA"/>
<path d="M11.4962 9.4701C10.5576 9.47045 9.63997 9.19295 8.8594 8.67269C8.07884 8.15243 7.47039 7.41279 7.11104 6.54734C6.75169 5.68188 6.65757 4.72949 6.8406 3.81063C7.02362 2.89178 7.47557 2.04775 8.13926 1.3853C8.80295 0.722859 9.64858 0.271765 10.5692 0.089084C11.4898 -0.0935971 12.4439 0.000341689 13.311 0.359018C14.1781 0.717694 14.9192 1.32499 15.4404 2.10409C15.9616 2.88319 16.2397 3.79909 16.2393 4.73593C16.2374 5.99092 15.7371 7.19398 14.848 8.0814C13.9589 8.96882 12.7536 9.4682 11.4962 9.4701ZM11.4962 1.23948C10.8033 1.23913 10.1258 1.44389 9.54953 1.82787C8.97322 2.21185 8.52395 2.75779 8.25854 3.39665C7.99313 4.03551 7.9235 4.73859 8.05846 5.41695C8.19342 6.09531 8.52691 6.71849 9.01675 7.20765C9.50659 7.69682 10.1308 8.03 10.8103 8.16506C11.4899 8.30011 12.1943 8.23098 12.8345 7.96639C13.4747 7.70181 14.022 7.25366 14.407 6.67863C14.792 6.10361 14.9974 5.42753 14.9974 4.73593C14.9965 3.80921 14.6274 2.9207 13.971 2.26524C13.3147 1.60979 12.4247 1.2409 11.4962 1.23948Z" fill="#FAFAFA"/>
<path d="M25.2123 2.12435C25.5582 2.12435 25.8386 1.84447 25.8386 1.49922C25.8386 1.15397 25.5582 0.874084 25.2123 0.874084C24.8663 0.874084 24.5859 1.15397 24.5859 1.49922C24.5859 1.84447 24.8663 2.12435 25.2123 2.12435Z" fill="#FAFAFA"/>
<path d="M0.626312 8.23958C0.972214 8.23958 1.25262 7.9597 1.25262 7.61445C1.25262 7.2692 0.972214 6.98932 0.626312 6.98932C0.280409 6.98932 0 7.2692 0 7.61445C0 7.9597 0.280409 8.23958 0.626312 8.23958Z" fill="#FAFAFA"/>
<path d="M5.76791 29.9544C6.11382 29.9544 6.39422 29.6745 6.39422 29.3293C6.39422 28.984 6.11382 28.7042 5.76791 28.7042C5.42201 28.7042 5.1416 28.984 5.1416 29.3293C5.1416 29.6745 5.42201 29.9544 5.76791 29.9544Z" fill="#FAFAFA"/>
<path d="M66.9239 3.5824C64.8117 3.40328 63.0709 4.22008 61.7376 5.98263C60.4042 4.21829 58.6616 3.40328 56.5476 3.5824C54.8248 3.73108 53.4125 4.38129 52.3483 5.5187C51.2123 6.72598 50.6362 8.33628 50.6362 10.2994V19.1516C50.6362 19.2125 50.6483 19.2729 50.6716 19.3292C50.695 19.3854 50.7292 19.4366 50.7724 19.4797C50.8155 19.5227 50.8668 19.5569 50.9232 19.5802C50.9795 19.6035 51.04 19.6155 51.101 19.6155H53.154C53.2151 19.6155 53.2755 19.6035 53.3319 19.5802C53.3883 19.5569 53.4395 19.5227 53.4827 19.4797C53.5259 19.4366 53.5601 19.3854 53.5835 19.3292C53.6068 19.2729 53.6188 19.2125 53.6188 19.1516V10.0648C53.6188 9.00261 53.9006 8.13387 54.4802 7.40664C54.7397 7.07122 55.0757 6.80257 55.4603 6.6231C55.8449 6.44362 56.2669 6.35853 56.6912 6.3749C57.6197 6.35383 58.5203 6.69283 59.2036 7.32066C59.5353 7.60465 59.7998 7.95857 59.9779 8.3569C60.1561 8.75524 60.2434 9.18806 60.2337 9.62416V19.1498C60.2337 19.2729 60.2827 19.3909 60.3698 19.4779C60.457 19.5649 60.5752 19.6138 60.6985 19.6138H62.7784C62.9017 19.6138 63.0199 19.5649 63.1071 19.4779C63.1942 19.3909 63.2432 19.2729 63.2432 19.1498V9.62416C63.2335 9.18806 63.3209 8.75524 63.499 8.3569C63.6771 7.95857 63.9416 7.60465 64.2733 7.32066C64.9566 6.69283 65.8572 6.35383 66.7857 6.3749C67.2155 6.36021 67.6426 6.44753 68.032 6.6297C68.4213 6.81187 68.7618 7.08367 69.0254 7.42276C69.6253 8.17063 69.9389 9.1072 69.9101 10.0648V19.1498C69.9101 19.2729 69.9591 19.3909 70.0463 19.4779C70.1334 19.5649 70.2516 19.6138 70.3749 19.6138H72.4297C72.553 19.6138 72.6712 19.5649 72.7584 19.4779C72.8455 19.3909 72.8945 19.2729 72.8945 19.1498V10.2977C72.8945 8.32733 72.3077 6.71523 71.1538 5.51333C70.068 4.37949 68.6467 3.72928 66.9239 3.5824Z" fill="#FAFAFA"/>
<path d="M87.0645 12.6782C87.0723 13.2176 86.9666 13.7527 86.7542 14.2488C86.5419 14.745 86.2276 15.1911 85.8316 15.5584C85.4562 15.9406 85.0082 16.2442 84.5138 16.4515C84.0193 16.6588 83.4885 16.7656 82.9522 16.7656C82.416 16.7656 81.8851 16.6588 81.3907 16.4515C80.8963 16.2442 80.4482 15.9406 80.0728 15.5584C79.6769 15.1911 79.3626 14.745 79.1502 14.2488C78.9378 13.7527 78.8321 13.2176 78.8399 12.6782V3.99078C78.8399 3.86774 78.791 3.74974 78.7038 3.66274C78.6166 3.57573 78.4984 3.52686 78.3751 3.52686H76.4011C76.2778 3.52686 76.1596 3.57573 76.0724 3.66274C75.9852 3.74974 75.9363 3.86774 75.9363 3.99078V12.4274C75.9363 14.464 76.6057 16.1889 77.9265 17.5503C79.2473 18.9116 80.9414 19.6137 82.9513 19.6137C84.9613 19.6137 86.6536 18.9187 87.9762 17.552C89.2988 16.1853 89.9646 14.4622 89.9646 12.4274V3.99078C89.9646 3.86774 89.9156 3.74974 89.8284 3.66274C89.7413 3.57573 89.6231 3.52686 89.4998 3.52686H87.5257C87.4025 3.52686 87.2842 3.57573 87.1971 3.66274C87.1099 3.74974 87.0609 3.86774 87.0609 3.99078L87.0645 12.6782Z" fill="#FAFAFA"/>
<path d="M100.059 3.55194C98.0492 3.55194 96.3533 4.24156 95.0199 5.5993C93.6866 6.95703 93.0154 8.6766 93.0154 10.7132V19.1498C93.0151 19.2107 93.027 19.2709 93.0501 19.3272C93.0733 19.3835 93.1073 19.4346 93.1504 19.4777C93.1934 19.5209 93.2445 19.5551 93.3008 19.5784C93.3571 19.6017 93.4174 19.6137 93.4784 19.6137H95.4524C95.5757 19.6137 95.6939 19.5649 95.7811 19.4779C95.8683 19.3909 95.9172 19.2729 95.9172 19.1498V10.5054C95.9101 9.96484 96.0163 9.42873 96.2289 8.93149C96.4415 8.43425 96.7559 7.98685 97.1519 7.61799C97.5279 7.23295 97.9774 6.92694 98.4738 6.718C98.9701 6.50905 99.5034 6.40141 100.042 6.40141C100.581 6.40141 101.114 6.50905 101.61 6.718C102.107 6.92694 102.556 7.23295 102.932 7.61799C103.328 7.98685 103.643 8.43425 103.855 8.93149C104.068 9.42873 104.174 9.96484 104.167 10.5054V19.1498C104.167 19.2729 104.216 19.3909 104.303 19.4779C104.39 19.5649 104.508 19.6137 104.632 19.6137H106.606C106.729 19.6137 106.847 19.5649 106.934 19.4779C107.022 19.3909 107.071 19.2729 107.071 19.1498V10.7132C107.071 8.6766 106.396 6.95166 105.064 5.5993C103.733 4.24693 102.051 3.55194 100.059 3.55194Z" fill="#FAFAFA"/>
<path d="M118.513 -2.97477e-05H116.539C116.416 -2.97477e-05 116.297 0.0488478 116.21 0.13585C116.123 0.222853 116.074 0.340854 116.074 0.463894V14.5554C116.074 18.6751 119.177 19.5869 121.833 19.6137C121.917 19.6134 122 19.5905 122.073 19.5475C122.21 19.4669 122.412 19.3182 122.412 19.1498V17.5144C122.412 17.3914 122.363 17.2734 122.276 17.1864C122.189 17.0994 122.071 17.0505 121.948 17.0505C119.923 17.0505 118.979 16.1549 118.979 14.2186V6.32295H121.948C122.071 6.32295 122.189 6.27407 122.276 6.18707C122.363 6.10007 122.412 5.98206 122.412 5.85902V4.01587C122.412 3.95503 122.4 3.89479 122.377 3.8386C122.354 3.78242 122.319 3.73139 122.276 3.68846C122.233 3.64552 122.182 3.61152 122.125 3.5884C122.069 3.56528 122.009 3.5535 121.948 3.55373H118.981V0.463894C118.981 0.402601 118.969 0.341871 118.946 0.285242C118.922 0.228613 118.888 0.177214 118.844 0.13404C118.801 0.0908657 118.749 0.0567777 118.692 0.0337605C118.635 0.0107434 118.574 -0.000742945 118.513 -2.97477e-05Z" fill="#FAFAFA"/>
<path d="M134.826 3.75075L130.427 14.086C130.415 14.1206 130.392 14.1505 130.361 14.1716C130.331 14.1927 130.295 14.2041 130.259 14.2041C130.222 14.2041 130.186 14.1927 130.155 14.1716C130.125 14.1505 130.102 14.1206 130.09 14.086L127.039 6.58624C127.005 6.50023 126.945 6.42645 126.868 6.37442C126.792 6.32238 126.701 6.29447 126.608 6.29428H124.455C124.379 6.29455 124.305 6.31324 124.238 6.34872C124.171 6.38419 124.114 6.43539 124.072 6.49786C124.029 6.56033 124.003 6.6322 123.995 6.70722C123.986 6.78224 123.996 6.85815 124.024 6.92836L128.523 18.2703L125.996 24.6058C125.969 24.6762 125.958 24.7523 125.967 24.8274C125.975 24.9026 126.002 24.9746 126.045 25.0371C126.087 25.0996 126.144 25.1508 126.211 25.1861C126.278 25.2215 126.353 25.2399 126.429 25.2399H128.545C128.636 25.2402 128.725 25.2135 128.801 25.1631C128.877 25.1127 128.937 25.041 128.972 24.9569L137.742 4.11974C137.772 4.04922 137.783 3.9725 137.776 3.89639C137.769 3.82029 137.743 3.74717 137.7 3.68353C137.658 3.61989 137.6 3.56771 137.533 3.53163C137.465 3.49554 137.39 3.47667 137.313 3.4767H135.255C135.164 3.47599 135.076 3.50152 134.999 3.55017C134.923 3.59882 134.863 3.66851 134.826 3.75075Z" fill="#FAFAFA"/>
<path d="M47.2821 3.75075L42.8907 14.086C42.8781 14.1206 42.8552 14.1505 42.825 14.1716C42.7948 14.1927 42.7589 14.2041 42.722 14.2041C42.6852 14.2041 42.6492 14.1927 42.619 14.1716C42.5888 14.1505 42.5659 14.1206 42.5533 14.086L39.481 6.58266C39.4466 6.49664 39.3872 6.42287 39.3104 6.37084C39.2337 6.3188 39.1431 6.29089 39.0503 6.29069H36.8968C36.821 6.29068 36.7464 6.30915 36.6794 6.34451C36.6124 6.37986 36.5551 6.43102 36.5125 6.49354C36.4698 6.55606 36.4431 6.62803 36.4347 6.70319C36.4263 6.77835 36.4365 6.85442 36.4643 6.92478L40.9795 18.2703L38.4527 24.6058C38.4249 24.6762 38.4148 24.7523 38.4232 24.8274C38.4316 24.9026 38.4582 24.9746 38.5009 25.0371C38.5435 25.0996 38.6008 25.1508 38.6678 25.1861C38.7348 25.2215 38.8094 25.2399 38.8852 25.2399H41.001C41.0923 25.2402 41.1816 25.2135 41.2576 25.1631C41.3336 25.1127 41.393 25.041 41.4281 24.9569L50.1983 4.11974C50.2278 4.04922 50.2395 3.9725 50.2322 3.89639C50.2249 3.82029 50.1989 3.74717 50.1564 3.68353C50.114 3.61989 50.0564 3.56771 49.9889 3.53163C49.9214 3.49554 49.846 3.47667 49.7694 3.4767H47.711C47.6206 3.47599 47.5319 3.50152 47.4558 3.55017C47.3796 3.59882 47.3193 3.66851 47.2821 3.75075Z" fill="#FAFAFA"/>
<path d="M112.562 4.93298H110.586C110.329 4.93298 110.121 5.14069 110.121 5.39691V19.148C110.121 19.4043 110.329 19.612 110.586 19.612H112.562C112.819 19.612 113.027 19.4043 113.027 19.148V5.39691C113.027 5.14069 112.819 4.93298 112.562 4.93298Z" fill="#FAFAFA"/>
<path d="M111.644 2.81197C112.423 2.77665 113.026 2.11753 112.991 1.33979C112.955 0.562041 112.295 -0.0398164 111.516 -0.00449918C110.737 0.030818 110.134 0.689935 110.169 1.46768C110.204 2.24543 110.865 2.84728 111.644 2.81197Z" fill="#FAFAFA"/>
</g>
<defs>
<clipPath id="clip0_299_1351">
<rect width="137.778" height="32" fill="white"/>
</clipPath>
</defs>
</svg>
